<?xml version="1.0" encoding="UTF-8" standalone="no"?>
<!-- Created with Inkscape (http://www.inkscape.org/) -->

<svg
   width="172"
   height="172"
   viewBox="0 0 45.508328 45.508328"
   version="1.1"
   id="svg1"
   sodipodi:docname="guitar.svg"
   inkscape:version="1.3.1 (9b9bdc1480, 2023-11-25, custom)"
   xmlns:inkscape="http://www.inkscape.org/namespaces/inkscape"
   xmlns:sodipodi="http://sodipodi.sourceforge.net/DTD/sodipodi-0.dtd"
   xmlns="http://www.w3.org/2000/svg"
   xmlns:svg="http://www.w3.org/2000/svg">
  <sodipodi:namedview
     id="namedview1"
     pagecolor="#ffffff"
     bordercolor="#000000"
     borderopacity="0.25"
     inkscape:showpageshadow="2"
     inkscape:pageopacity="0.0"
     inkscape:pagecheckerboard="0"
     inkscape:deskcolor="#d1d1d1"
     inkscape:document-units="mm"
     inkscape:zoom="2.7723345"
     inkscape:cx="131.83835"
     inkscape:cy="115.24584"
     inkscape:window-width="1920"
     inkscape:window-height="1043"
     inkscape:window-x="0"
     inkscape:window-y="0"
     inkscape:window-maximized="1"
     inkscape:current-layer="layer1" />
  <defs
     id="defs1" />
  <g
     inkscape:label="Layer 1"
     inkscape:groupmode="layer"
     id="layer1">
    <path
       id="path10"
       style="color:#000000;fill:#fb7b54;fill-opacity:1;stroke-width:3.7054;stroke-linecap:round;-inkscape-stroke:none"
       d="m 22.754187,0.30482183 c -12.38694,0 -22.44936017,10.06243017 -22.44936017,22.44932017 0,12.38694 10.06242017,22.44937 22.44936017,22.44937 12.3869,0 22.44932,-10.06243 22.44932,-22.44937 0,-3.1929 -0.67075,-6.23578 -1.87459,-8.98815 a 0.8744748,0.8744748 0 0 0 -1.15083,-0.44999 0.8744748,0.8744748 0 0 0 -0.44806,1.15083 c 1.10955,2.53672 1.72142,5.33804 1.72142,8.28731 0,11.44173 -9.25553,20.6973 -20.69726,20.6973 -11.44172,0 -20.6992302,-9.25553 -20.6992302,-20.6973 0,-11.44168 9.2575102,-20.6991902 20.6992302,-20.6991902 2.83915,0 5.54302,0.56841 8.00393,1.60081 a 0.8744748,0.8744748 0 0 0 1.14315,-0.4634 0.8744748,0.8744748 0 0 0 -0.46914,-1.14508 c -2.67019,-1.12020997 -5.60423,-1.74245997 -8.67794,-1.74245997 z m 20.73939,0.52272 v 0.004 c -0.1371,0.007 -0.27012,0.0478 -0.38869,0.11672 -2.60742,1.47833997 -4.43359,3.37083997 -7.38165,3.38732997 -0.13043,1.8e-4 -0.25937,0.0296 -0.37721,0.086 -0.38643,0.18935 -0.58682,0.60558 -0.63573,0.88274 -0.0489,0.27716 -0.0222,0.49397 0.007,0.71614 0.0623,0.44432 0.19379,0.89741 0.29866,1.34036 0.10449,0.44298 0.17748,0.87599 0.18008,1.15656 0.002,0.21047 -0.0222,0.27198 -0.0222,0.27754 -0.0259,0.0185 -0.0497,0.0411 -0.0726,0.0634 l -9.96279,10.1236802 c -0.13858,-0.23159 -0.22306,-0.48126 -0.27753,-0.76595 -0.0978,-0.50956 -0.0671,-1.12547 -0.0148,-1.7731 0.0556,-0.64764 0.13932,-1.3152 0.0786,-2.00485 -0.0608,-0.68957 -0.34275,-1.4829 -1.03403,-1.96268 -0.11005,-0.0782 -0.2364,-0.13006 -0.36943,-0.15118 h -0.002 c -0.90372,-0.13599 -1.74425,0.10598 -2.30736,0.60124 -0.56311,0.49549 -0.86636,1.12248 -1.16613,1.76548 -0.59619,1.27884 -1.1583,2.6956 -2.59841,3.89474 -0.77828,0.5852 -1.70015,0.57738 -2.96606,0.6357 -1.27184,0.0585 -2.8715,0.27569 -4.22601,1.66591 -0.0185,0.0185 -0.0371,0.0374 -0.0519,0.0574 -1.5268102,1.86389 -1.9220602,4.27733 -1.5701602,6.53529 0.35201,2.258 1.4374402,4.40394 3.0330902,5.87658 1.89305,1.73213 3.98998,3.88701 7.51949,3.86411 0.0111,2.6e-4 0.0259,2.6e-4 0.037,0 1.41776,-0.0682 2.52616,-0.47822 3.32797,-1.15083 0.80185,-0.6726 1.26106,-1.56364 1.54908,-2.46053 0.57611,-1.79375 0.60961,-3.72286 1.07231,-4.91344 0.0111,-0.0296 0.0222,-0.0619 0.0296,-0.0937 0.0552,-0.20342 0.14303,-0.31829 0.39062,-0.494 0.24789,-0.17601 0.64633,-0.36276 1.12207,-0.57063 0.95147,-0.41582 2.23973,-0.95292 3.16905,-2.21546 0.0148,-0.0185 0.0296,-0.0378 0.0459,-0.0574 0.2264,-0.36683 0.33645,-0.8084 0.28347,-1.20825 -0.053,-0.39985 -0.23826,-0.70996 -0.42127,-0.94784 -0.36609,-0.4757 -0.76869,-0.77543 -0.91909,-0.96315 -0.30125,-0.37765 -0.85183,-0.43942 -1.22934,-0.13784 -0.37647,0.30384 -0.43494,0.85543 -0.13006,1.23123 0.36498,0.45551 0.74601,0.74497 0.89041,0.93254 0.0722,0.0937 0.073,0.13302 0.0708,0.11672 -2.9e-4,-0.002 -0.007,0.0111 -0.007,0.007 -0.60813,0.81745 -1.49676,1.22504 -2.45286,1.6429 -0.48067,0.2101 -0.97252,0.4186 -1.43229,0.74486 -0.45313,0.32163 -0.86906,0.80585 -1.04933,1.43996 -0.62603,1.65979 -0.64508,3.55411 -1.09336,4.94982 -0.22714,0.70703 -0.53165,1.26095 -1.00527,1.6582 -0.4664,0.39126 -1.1499,0.67631 -2.25759,0.73723 -0.003,4e-5 -0.004,0 -0.007,0 -2.82278,0.0148 -4.36663,-1.62104 -6.31126,-3.40074 -1.25413,-1.15742 -2.19697,-2.98085 -2.48926,-4.85597 -0.28976,-1.85959 0.0593,-3.71526 1.18718,-5.11638 0.95318,-0.95522 1.84725,-1.0762 3.01008,-1.12978 1.17939,-0.0545 2.64277,0.0148 3.95796,-0.98419 0.0111,-0.007 0.0222,-0.0148 0.0297,-0.0222 1.8219,-1.50354 2.52738,-3.33901 3.08285,-4.53048 0.27791,-0.59576 0.52391,-1.01221 0.73145,-1.19485 0.14229,-0.12524 0.38321,-0.11338 0.61465,-0.12265 0.0874,0.11079 0.17749,0.18787 0.20306,0.47678 0.037,0.41163 -0.0222,1.01561 -0.0804,1.70037 -0.0585,0.68479 -0.10931,1.46148 0.0441,2.25948 0.11043,0.57448 0.34609,1.16575 0.74872,1.69463 l -0.48256,0.49018 c -0.33756,0.34572 -0.33015,0.89968 0.0148,1.23698 0.34312,0.34015 0.897,0.33719 1.23697,-0.007 l 11.68039,-11.87763 -0.0863,0.0726 c 0.56615,-0.4411002 0.69299,-1.1211502 0.68743,-1.6639902 -0.004,-0.54288 -0.11857,-1.06386 -0.23159,-1.54141 -0.10449,-0.44202 -0.20342,-0.82193 -0.24715,-1.08572 2.59349,-0.26827 4.51785,-1.45178 6.26721,-2.61372 0.0445,0.65686 0.13561,1.28063 0.0671,2.00481 -1.92792,1.1313 -3.34145,2.91545 -4.4079,4.9517202 -0.22344,0.42778 -0.0578,0.95569 0.36942,1.17954 0.42779,0.22343 0.9557,0.0582 1.17954,-0.36943 1.15046,-2.1966002 2.37339,-4.0145102 4.08047,-4.7487302 0.29346,-0.12451 0.49604,-0.39893 0.5285,-0.71615 0.14266,-1.39208 0.12561,-2.74837 -0.15896,-4.03837 -0.0589,-0.27308 -0.24456,-0.50126 -0.49979,-0.61464997 -0.12598,-0.0552 -0.26308,-0.0804 -0.40018,-0.0726 z M 18.041807,23.701992 c -1.77433,0 -3.22648,1.45981 -3.22648,3.23414 0,1.77434 1.45215,3.22837 3.22648,3.22837 1.77429,0 3.23604,-1.45403 3.23604,-3.22837 0,-1.77433 -1.46175,-3.23414 -3.23604,-3.23414 z m 0,1.75013 c 0.82912,0 1.48398,0.65489 1.48398,1.48401 0,0.82913 -0.65486,1.47631 -1.48398,1.47631 -0.82912,0 -1.47634,-0.64718 -1.47634,-1.47631 0,-0.82912 0.64722,-1.48401 1.47634,-1.48401 z" />
  </g>
</svg>
