<?xml version="1.0" encoding="UTF-8" standalone="no"?>
<!-- Created with Inkscape (http://www.inkscape.org/) -->

<svg
   width="135mm"
   height="35mm"
   viewBox="0 0 135 35"
   version="1.1"
   id="svg1"
   inkscape:version="1.3.1 (9b9bdc1480, 2023-11-25, custom)"
   sodipodi:docname="logo.svg"
   xmlns:inkscape="http://www.inkscape.org/namespaces/inkscape"
   xmlns:sodipodi="http://sodipodi.sourceforge.net/DTD/sodipodi-0.dtd"
   xmlns="http://www.w3.org/2000/svg"
   xmlns:svg="http://www.w3.org/2000/svg">
  <sodipodi:namedview
     id="namedview1"
     pagecolor="#ffffff"
     bordercolor="#000000"
     borderopacity="0.25"
     inkscape:showpageshadow="2"
     inkscape:pageopacity="0.0"
     inkscape:pagecheckerboard="0"
     inkscape:deskcolor="#d1d1d1"
     inkscape:document-units="mm"
     inkscape:zoom="1.5019781"
     inkscape:cx="373.50744"
     inkscape:cy="107.52487"
     inkscape:window-width="1920"
     inkscape:window-height="1043"
     inkscape:window-x="0"
     inkscape:window-y="0"
     inkscape:window-maximized="1"
     inkscape:current-layer="layer1" />
  <defs
     id="defs1">
    <clipPath
       clipPathUnits="userSpaceOnUse"
       id="clipPath10">
      <path
         d="M 0,2141.602 H 1920 V 0 H 0 Z"
         transform="translate(-309.97801,-2027.6673)"
         id="path10" />
    </clipPath>
    <clipPath
       clipPathUnits="userSpaceOnUse"
       id="clipPath12">
      <path
         d="M 0,2141.602 H 1920 V 0 H 0 Z"
         transform="translate(-390.24171,-2031.1539)"
         id="path12" />
    </clipPath>
    <clipPath
       clipPathUnits="userSpaceOnUse"
       id="clipPath14">
      <path
         d="M 0,2141.602 H 1920 V 0 H 0 Z"
         transform="translate(-440.38511,-2051.1948)"
         id="path14" />
    </clipPath>
    <clipPath
       clipPathUnits="userSpaceOnUse"
       id="clipPath16">
      <path
         d="M 0,2141.602 H 1920 V 0 H 0 Z"
         transform="translate(-460.91321,-2025.8634)"
         id="path16" />
    </clipPath>
    <clipPath
       clipPathUnits="userSpaceOnUse"
       id="clipPath18">
      <path
         d="M 0,2141.602 H 1920 V 0 H 0 Z"
         transform="translate(-491.92001,-2051.1948)"
         id="path18" />
    </clipPath>
    <clipPath
       clipPathUnits="userSpaceOnUse"
       id="clipPath20">
      <path
         d="M 0,2141.602 H 1920 V 0 H 0 Z"
         transform="translate(-507.63691,-2051.1948)"
         id="path20" />
    </clipPath>
    <clipPath
       clipPathUnits="userSpaceOnUse"
       id="clipPath22">
      <path
         d="M 0,2141.602 H 1920 V 0 H 0 Z"
         transform="translate(-552.60361,-2051.1948)"
         id="path22" />
    </clipPath>
    <clipPath
       clipPathUnits="userSpaceOnUse"
       id="clipPath24">
      <path
         d="M 0,2141.602 H 1920 V 0 H 0 Z"
         transform="translate(-579.08111,-2031.1539)"
         id="path24" />
    </clipPath>
    <clipPath
       clipPathUnits="userSpaceOnUse"
       id="clipPath26">
      <path
         d="M 0,2141.602 H 1920 V 0 H 0 Z"
         transform="translate(-632.30621,-2019.2697)"
         id="path26" />
    </clipPath>
    <clipPath
       clipPathUnits="userSpaceOnUse"
       id="clipPath28">
      <path
         d="M 0,2141.602 H 1920 V 0 H 0 Z"
         transform="translate(-341.42721,-2055.2696)"
         id="path28" />
    </clipPath>
    <clipPath
       clipPathUnits="userSpaceOnUse"
       id="clipPath30">
      <path
         d="M 0,2141.602 H 1920 V 0 H 0 Z"
         transform="translate(-319.35301,-2063.0847)"
         id="path30" />
    </clipPath>
    <clipPath
       clipPathUnits="userSpaceOnUse"
       id="clipPath10-7">
      <path
         d="M 0,2141.602 H 1920 V 0 H 0 Z"
         transform="translate(-309.97801,-2027.6673)"
         id="path10-9" />
    </clipPath>
    <clipPath
       clipPathUnits="userSpaceOnUse"
       id="clipPath12-2">
      <path
         d="M 0,2141.602 H 1920 V 0 H 0 Z"
         transform="translate(-390.24171,-2031.1539)"
         id="path12-0" />
    </clipPath>
    <clipPath
       clipPathUnits="userSpaceOnUse"
       id="clipPath14-2">
      <path
         d="M 0,2141.602 H 1920 V 0 H 0 Z"
         transform="translate(-440.38511,-2051.1948)"
         id="path14-3" />
    </clipPath>
    <clipPath
       clipPathUnits="userSpaceOnUse"
       id="clipPath16-7">
      <path
         d="M 0,2141.602 H 1920 V 0 H 0 Z"
         transform="translate(-460.91321,-2025.8634)"
         id="path16-5" />
    </clipPath>
    <clipPath
       clipPathUnits="userSpaceOnUse"
       id="clipPath18-9">
      <path
         d="M 0,2141.602 H 1920 V 0 H 0 Z"
         transform="translate(-491.92001,-2051.1948)"
         id="path18-2" />
    </clipPath>
    <clipPath
       clipPathUnits="userSpaceOnUse"
       id="clipPath20-2">
      <path
         d="M 0,2141.602 H 1920 V 0 H 0 Z"
         transform="translate(-507.63691,-2051.1948)"
         id="path20-8" />
    </clipPath>
    <clipPath
       clipPathUnits="userSpaceOnUse"
       id="clipPath22-9">
      <path
         d="M 0,2141.602 H 1920 V 0 H 0 Z"
         transform="translate(-552.60361,-2051.1948)"
         id="path22-7" />
    </clipPath>
    <clipPath
       clipPathUnits="userSpaceOnUse"
       id="clipPath24-3">
      <path
         d="M 0,2141.602 H 1920 V 0 H 0 Z"
         transform="translate(-579.08111,-2031.1539)"
         id="path24-6" />
    </clipPath>
    <clipPath
       clipPathUnits="userSpaceOnUse"
       id="clipPath26-1">
      <path
         d="M 0,2141.602 H 1920 V 0 H 0 Z"
         transform="translate(-632.30621,-2019.2697)"
         id="path26-2" />
    </clipPath>
    <clipPath
       clipPathUnits="userSpaceOnUse"
       id="clipPath28-9">
      <path
         d="M 0,2141.602 H 1920 V 0 H 0 Z"
         transform="translate(-341.42721,-2055.2696)"
         id="path28-3" />
    </clipPath>
    <clipPath
       clipPathUnits="userSpaceOnUse"
       id="clipPath30-1">
      <path
         d="M 0,2141.602 H 1920 V 0 H 0 Z"
         transform="translate(-319.35301,-2063.0847)"
         id="path30-9" />
    </clipPath>
  </defs>
  <g
     inkscape:label="Layer 1"
     inkscape:groupmode="layer"
     id="layer1">
    <g
       id="g3"
       transform="matrix(0.26458333,0,0,0.26458333,-88.571062,-20.428336)">
      <path
         id="path9"
         d="m 0,0 c -1.118,-1.574 -1.699,-3.426 -1.68,-5.362 0.048,-4.977 4.138,-9.026 9.116,-9.026 5,0 9.003,3.914 9.114,8.911 0.031,1.419 -0.273,2.825 -0.881,4.106 L 15.681,-1.343 4.522,18.733 -1.106,28.92 c -0.798,1.49 -1.994,2.725 -3.461,3.572 -1.379,0.796 -2.946,1.217 -4.531,1.217 -3.237,0 -6.251,-1.74 -7.868,-4.54 L -34.245,-0.759 c -1.212,-2.1 -1.534,-4.546 -0.907,-6.888 0.627,-2.342 2.13,-4.299 4.229,-5.511 1.38,-0.797 2.946,-1.218 4.531,-1.218 3.237,0 6.251,1.74 7.869,4.541 l 16.479,28.589 5.446,-9.86 c 0.474,-0.857 0.474,-1.881 0,-2.738 z"
         style="fill:#fb7b54;fill-opacity:1;fill-rule:nonzero;stroke:none"
         transform="matrix(1.3333333,0,0,-1.3333333,413.304,151.9104)"
         clip-path="url(#clipPath10-7)" />
      <path
         id="path11"
         d="M 0,0 H -5.399 C -6.101,0 -6.58,0.712 -6.315,1.363 l 1.123,2.757 c 0.764,1.984 2.34,7.172 2.34,7.172 h 0.305 c 0,0 1.577,-5.239 2.34,-7.172 L 0.916,1.363 C 1.182,0.712 0.703,0 0,0 M 3.098,19.428 C 2.945,19.799 2.584,20.041 2.183,20.041 H -7.53 c -0.401,0 -0.763,-0.242 -0.915,-0.613 l -12.97,-31.49 c -0.268,-0.652 0.211,-1.367 0.915,-1.367 h 8.224 c 0.407,0 0.773,0.249 0.922,0.628 l 2.101,5.357 c 0.149,0.379 0.514,0.628 0.921,0.628 h 11.27 c 0.405,0 0.769,-0.246 0.919,-0.622 l 2.147,-5.369 c 0.151,-0.375 0.515,-0.622 0.919,-0.622 h 8.229 c 0.704,0 1.183,0.715 0.915,1.367 z"
         style="fill:#fb7b54;fill-opacity:1;fill-rule:nonzero;stroke:none"
         transform="matrix(1.3333333,0,0,-1.3333333,520.32227,147.2616)"
         clip-path="url(#clipPath12-2)" />
      <path
         id="path13"
         d="m 0,0 h -7.278 c -0.547,0 -0.99,-0.443 -0.99,-0.99 v -18.186 c 0,-4.223 -2.34,-6.766 -6.918,-6.766 -4.679,0 -6.917,2.543 -6.917,6.766 V -0.99 c 0,0.547 -0.443,0.99 -0.99,0.99 h -7.33 c -0.546,0 -0.989,-0.443 -0.989,-0.99 v -18.695 c 0,-9.766 7.02,-14.396 16.226,-14.396 9.156,0 16.175,4.63 16.175,14.396 V -0.99 C 0.989,-0.443 0.546,0 0,0"
         style="fill:#fb7b54;fill-opacity:1;fill-rule:nonzero;stroke:none"
         transform="matrix(1.3333333,0,0,-1.3333333,587.18013,120.54027)"
         clip-path="url(#clipPath14-2)" />
      <path
         id="path15"
         d="m 0,0 h -3.385 c -0.547,0 -0.99,0.443 -0.99,0.99 v 15.213 c 0,0.547 0.443,0.99 0.99,0.99 h 2.571 C 6.348,17.193 8.793,13.389 8.8,8.668 8.807,3.86 4.808,0 0,0 m -2.187,25.332 h -10.455 c -0.547,0 -0.99,-0.444 -0.99,-0.99 V -7.149 c 0,-0.546 0.443,-0.989 0.99,-0.989 h 12.388 c 11.699,0 18.363,5.595 18.363,16.785 0,9.411 -5.494,16.685 -20.296,16.685"
         style="fill:#fb7b54;fill-opacity:1;fill-rule:nonzero;stroke:none"
         transform="matrix(1.3333333,0,0,-1.3333333,614.55093,154.3156)"
         clip-path="url(#clipPath16-7)" />
      <path
         id="path17"
         d="m 0,0 h -7.278 c -0.547,0 -0.99,-0.443 -0.99,-0.99 v -31.49 c 0,-0.547 0.443,-0.99 0.99,-0.99 H 0 c 0.547,0 0.99,0.443 0.99,0.99 V -0.99 C 0.99,-0.443 0.547,0 0,0"
         style="fill:#fb7b54;fill-opacity:1;fill-rule:nonzero;stroke:none"
         transform="matrix(1.3333333,0,0,-1.3333333,655.89333,120.54027)"
         clip-path="url(#clipPath18-9)" />
      <path
         id="path19"
         d="m 0,0 h -7.278 c -0.546,0 -0.989,-0.443 -0.989,-0.99 v -31.49 c 0,-0.547 0.443,-0.99 0.989,-0.99 H 0 c 0.547,0 0.99,0.443 0.99,0.99 V -0.99 C 0.99,-0.443 0.547,0 0,0"
         style="fill:#fb7b54;fill-opacity:1;fill-rule:nonzero;stroke:none"
         transform="matrix(1.3333333,0,0,-1.3333333,676.8492,120.54027)"
         clip-path="url(#clipPath20-2)" />
      <path
         id="path21"
         d="m 0,0 h -8.036 c -0.335,0 -0.648,-0.17 -0.83,-0.452 l -9.321,-14.401 h -0.102 L -27.661,-0.45 C -27.844,-0.169 -28.156,0 -28.49,0 h -8.037 c -0.546,0 -0.989,-0.443 -0.989,-0.99 v -31.49 c 0,-0.547 0.443,-0.99 0.989,-0.99 h 7.278 c 0.547,0 0.99,0.443 0.99,0.99 v 12.337 c 0,1.729 -0.458,6.969 -0.458,6.969 l 0.153,0.05 c 0,0 2.543,-4.527 3.408,-5.849 l 6.257,-9.563 h 1.322 l 6.155,9.563 c 0.865,1.322 3.408,5.849 3.408,5.849 l 0.153,-0.05 c 0,0 -0.407,-5.24 -0.407,-6.969 V -32.48 c 0,-0.547 0.443,-0.99 0.989,-0.99 H 0 c 0.546,0 0.99,0.443 0.99,0.99 V -0.99 C 0.99,-0.443 0.546,0 0,0"
         style="fill:#fb7b54;fill-opacity:1;fill-rule:nonzero;stroke:none"
         transform="matrix(1.3333333,0,0,-1.3333333,736.8048,120.54027)"
         clip-path="url(#clipPath22-9)" />
      <path
         id="path23"
         d="M 0,0 H -5.399 C -6.101,0 -6.58,0.712 -6.315,1.363 l 1.123,2.757 c 0.763,1.984 2.34,7.172 2.34,7.172 h 0.305 c 0,0 1.577,-5.239 2.34,-7.172 L 0.916,1.363 C 1.182,0.712 0.703,0 0,0 M 3.097,19.428 C 2.945,19.799 2.583,20.041 2.182,20.041 H -7.53 c -0.401,0 -0.763,-0.242 -0.915,-0.613 l -12.97,-31.49 c -0.268,-0.652 0.211,-1.367 0.915,-1.367 h 8.224 c 0.407,0 0.773,0.249 0.921,0.628 l 2.102,5.357 c 0.149,0.379 0.514,0.628 0.921,0.628 h 11.27 c 0.405,0 0.768,-0.246 0.919,-0.622 l 2.147,-5.369 c 0.151,-0.375 0.515,-0.622 0.919,-0.622 h 8.229 c 0.704,0 1.183,0.715 0.915,1.367 z"
         style="fill:#fb7b54;fill-opacity:1;fill-rule:nonzero;stroke:none"
         transform="matrix(1.3333333,0,0,-1.3333333,772.10813,147.2616)"
         clip-path="url(#clipPath24-3)" />
      <path
         id="path25"
         d="m 0,0 -10.224,15.09 c -0.228,0.337 -0.227,0.779 0.002,1.114 l 9.7,14.173 c 0.449,0.656 -0.021,1.548 -0.817,1.548 h -8.286 c -0.325,0 -0.629,-0.159 -0.814,-0.427 l -4.842,-6.999 c -0.56,-0.814 -1.629,-2.747 -1.629,-2.747 h -0.152 l -6.775,9.748 c -0.185,0.266 -0.489,0.425 -0.813,0.425 h -8.391 c -0.796,0 -1.266,-0.891 -0.817,-1.548 l 9.652,-14.124 c 0.228,-0.335 0.23,-0.775 0.004,-1.111 L -34.388,-0.003 c -0.442,-0.657 0.029,-1.542 0.821,-1.542 h 8.506 c 0.326,0 0.632,0.161 0.816,0.431 l 4.792,6.996 c 0.407,0.61 1.984,3.306 1.984,3.306 h 0.102 l 7.081,-10.304 c 0.184,-0.268 0.489,-0.429 0.815,-0.429 h 8.652 C -0.025,-1.545 0.445,-0.657 0,0"
         style="fill:#fb7b54;fill-opacity:1;fill-rule:nonzero;stroke:none"
         transform="matrix(1.3333333,0,0,-1.3333333,843.07493,163.10707)"
         clip-path="url(#clipPath26-1)" />
      <path
         id="path27"
         d="m 0,0 c -1.442,-0.635 -2.095,-2.319 -1.46,-3.761 2.413,-5.477 3.637,-11.316 3.637,-17.354 0,-23.756 -19.327,-43.083 -43.083,-43.083 -23.756,0 -43.083,19.327 -43.083,43.083 0,23.756 19.327,43.083 43.083,43.083 5.941,0 11.693,-1.186 17.096,-3.525 1.448,-0.626 3.126,0.04 3.752,1.485 0.626,1.446 -0.039,3.126 -1.485,3.752 -6.124,2.65 -12.638,3.994 -19.363,3.994 -26.903,0 -48.789,-21.887 -48.789,-48.789 0,-26.902 21.886,-48.789 48.789,-48.789 26.902,0 48.789,21.887 48.789,48.789 0,6.835 -1.387,13.448 -4.122,19.655 C 3.126,-0.019 1.443,0.635 0,0"
         style="fill:#fb7b54;fill-opacity:1;fill-rule:nonzero;stroke:none"
         transform="matrix(1.3333333,0,0,-1.3333333,455.23627,115.10733)"
         clip-path="url(#clipPath28-9)" />
      <path
         id="path29"
         d="m 0,0 c 0,-1.587 1.286,-2.873 2.873,-2.873 h 4.078 v -4.078 c 0,-1.587 1.286,-2.873 2.873,-2.873 1.587,0 2.873,1.286 2.873,2.873 v 4.078 h 4.078 c 1.587,0 2.873,1.286 2.873,2.873 0,1.587 -1.286,2.873 -2.873,2.873 h -4.078 v 4.078 c 0,1.586 -1.286,2.873 -2.873,2.873 -1.587,0 -2.873,-1.287 -2.873,-2.873 V 2.873 H 2.873 C 1.286,2.873 0,1.587 0,0"
         style="fill:#fb7b54;fill-opacity:1;fill-rule:nonzero;stroke:none"
         transform="matrix(1.3333333,0,0,-1.3333333,425.804,104.68707)"
         clip-path="url(#clipPath30-1)" />
    </g>
  </g>
</svg>
