<?xml version="1.0" encoding="UTF-8" standalone="no"?>
<!-- Created with Inkscape (http://www.inkscape.org/) -->

<svg
   width="172"
   height="172"
   viewBox="0 0 45.508328 45.508328"
   version="1.1"
   id="svg1"
   sodipodi:docname="note.svg"
   inkscape:version="1.3.1 (9b9bdc1480, 2023-11-25, custom)"
   xmlns:inkscape="http://www.inkscape.org/namespaces/inkscape"
   xmlns:sodipodi="http://sodipodi.sourceforge.net/DTD/sodipodi-0.dtd"
   xmlns="http://www.w3.org/2000/svg"
   xmlns:svg="http://www.w3.org/2000/svg">
  <sodipodi:namedview
     id="namedview1"
     pagecolor="#ffffff"
     bordercolor="#000000"
     borderopacity="0.25"
     inkscape:showpageshadow="2"
     inkscape:pageopacity="0.0"
     inkscape:pagecheckerboard="0"
     inkscape:deskcolor="#d1d1d1"
     inkscape:document-units="mm"
     inkscape:zoom="2.7723345"
     inkscape:cx="131.83835"
     inkscape:cy="115.24584"
     inkscape:window-width="1920"
     inkscape:window-height="1043"
     inkscape:window-x="0"
     inkscape:window-y="0"
     inkscape:window-maximized="1"
     inkscape:current-layer="layer1" />
  <defs
     id="defs1" />
  <g
     inkscape:label="Layer 1"
     inkscape:groupmode="layer"
     id="layer1">
    <path
       id="circle10"
       style="color:#000000;fill:#fb7b54;fill-opacity:1;stroke-width:3.7054;stroke-linecap:round;-inkscape-stroke:none"
       d="m 43.468019,0.29691336 c -0.45215,-0.0222 -0.96872,0.0952 -1.65057,0.28347 a 0.87456225,0.87456225 0 0 0 -0.008,0 L 21.458745,6.4148334 a 0.87456225,0.87456225 0 0 0 -0.635721,0.83868 V 29.210753 c 7e-6,1.96309 -1.569738,3.53859 -3.532841,3.53859 -1.963092,0 -3.538596,-1.5755 -3.538585,-3.53859 8e-6,-1.96312 1.575504,-3.53095 3.538585,-3.53095 0.298248,0 0.583412,0.0434 0.857841,0.11117 v -1.78653 c -0.280202,-0.0459 -0.565326,-0.0767 -0.857841,-0.0767 -2.908274,0 -5.290636,2.37465 -5.290647,5.28298 -1.8e-5,2.90829 2.382351,5.29064 5.290647,5.29064 2.908299,0 5.282995,-2.38235 5.282987,-5.29064 V 14.244493 L 40.717999,9.0419234 a 0.87447662,0.87447662 0 0 0 0.59934,-1.07805 0.87447662,0.87447662 0 0 0 -1.08571,-0.60124 L 22.57317,12.427323 V 7.9121834 l 19.720729,-5.65255 -0.006,0.007 c 0.84131,-0.23233 1.03413,-0.15229 0.99762,-0.18787 l 0.18957,16.7604196 c -0.85572,-0.71336 -1.95242,-1.14315 -3.14796,-1.14315 -2.71833,0 -4.94408,2.2238 -4.94407,4.94216 2e-5,2.71831 2.22575,4.94408 4.94407,4.94408 2.71832,0 4.93447,-2.22577 4.93449,-4.94408 0,-0.0185 -0.002,-0.0333 -0.002,-0.0515 a 0.8744748,0.8744748 0 0 0 0.002,-0.0148 l -0.2317,-20.6474996 a 0.87456225,0.87456225 0 0 0 -0.0211,-0.2012 c -0.0174,-0.07 -0.0389,-0.23344 -0.13021,-0.47103 -0.0913,-0.23752 -0.31481,-0.56841004 -0.64529,-0.74486004 -0.24786,-0.13229 -0.49464,-0.19861 -0.76593,-0.21269 z m -20.777705,0.0185 c -12.386913,0 -22.44361433,10.06245964 -22.44359933,22.44931964 3e-6,12.38694 10.05670133,22.44937 22.44359933,22.44937 9.319665,0 17.330065,-5.68724 20.720265,-13.78673 a 0.8744748,0.8744748 0 0 0 -0.47105,-1.14312 0.8744748,0.8744748 0 0 0 -1.14314,0.46336 c -3.12445,7.46457 -10.49756,12.71442 -19.106075,12.71442 -11.441698,0 -20.6991963,-9.25553 -20.6992003,-20.6973 -1.5e-5,-11.44165 9.2574913,-20.6991896 20.6992003,-20.6991896 1.277812,0 2.528974,0.11191 3.741559,0.33312 a 0.8744748,0.8744748 0 0 0 1.020596,-0.70084 0.8744748,0.8744748 0 0 0 -0.710394,-1.01483004 c -1.315399,-0.23974 -2.668423,-0.36758 -4.051761,-0.36758 z M 40.327719,19.450183 c 1.77313,0 3.1901,1.41694 3.19009,3.19009 -1e-5,1.77311 -1.41698,3.19202 -3.19009,3.19202 -1.77312,0 -3.19966,-1.41891 -3.19967,-3.19202 0,-1.77315 1.42654,-3.19009 3.19967,-3.19009 z" />
  </g>
</svg>
