<?xml version="1.0" encoding="UTF-8" standalone="no"?>
<!-- Created with Inkscape (http://www.inkscape.org/) -->

<svg
   width="172"
   height="172"
   viewBox="0 0 45.508328 45.508328"
   version="1.1"
   id="svg1"
   sodipodi:docname="piggy_bank.svg"
   inkscape:version="1.3.1 (9b9bdc1480, 2023-11-25, custom)"
   xmlns:inkscape="http://www.inkscape.org/namespaces/inkscape"
   xmlns:sodipodi="http://sodipodi.sourceforge.net/DTD/sodipodi-0.dtd"
   xmlns="http://www.w3.org/2000/svg"
   xmlns:svg="http://www.w3.org/2000/svg">
  <sodipodi:namedview
     id="namedview1"
     pagecolor="#ffffff"
     bordercolor="#000000"
     borderopacity="0.25"
     inkscape:showpageshadow="2"
     inkscape:pageopacity="0.0"
     inkscape:pagecheckerboard="0"
     inkscape:deskcolor="#d1d1d1"
     inkscape:document-units="mm"
     inkscape:zoom="2.7723345"
     inkscape:cx="131.83835"
     inkscape:cy="115.24584"
     inkscape:window-width="1920"
     inkscape:window-height="1043"
     inkscape:window-x="0"
     inkscape:window-y="0"
     inkscape:window-maximized="1"
     inkscape:current-layer="layer1" />
  <defs
     id="defs1" />
  <g
     inkscape:label="Layer 1"
     inkscape:groupmode="layer"
     id="layer1">
    <path
       id="circle11"
       style="color:#000000;fill:#fb7b54;fill-opacity:1;stroke-width:3.7054;stroke-linecap:round;-inkscape-stroke:none"
       d="m 30.658541,0.26452167 c -2.831394,0 -5.147051,2.31373003 -5.147036,5.14513003 1.1e-5,2.83138 2.315657,5.1470303 5.147036,5.1470303 2.831375,0 5.14511,-2.3156503 5.145121,-5.1470303 1.4e-5,-2.8314 -2.313727,-5.14513003 -5.145121,-5.14513003 z m -7.904374,0.0786 v 0.002 c -12.386932,0 -22.44935833,10.06243033 -22.44934333,22.44932033 4e-6,12.38694 10.06243033,22.44937 22.44934333,22.44937 12.38691,0 22.449328,-10.06243 22.449343,-22.44937 7e-6,-5.95328 -2.327248,-11.37539 -6.11402,-15.3932403 -0.3303,-0.34867 -0.879974,-0.36572 -1.231228,-0.0382 -0.353198,0.33163 -0.369465,0.88718 -0.03631,1.2389 3.493471,3.7065903 5.631491,8.6917203 5.631484,14.1907303 -1.5e-5,11.44172 -9.257483,20.69918 -20.699197,20.69918 -11.441713,0 -20.6972803,-9.25746 -20.6972843,-20.69918 -1.5e-5,-11.44173 9.2555563,-20.6973003 20.6972843,-20.6973003 0.228698,0 0.454961,4e-4 0.681676,0.007 0.484244,0.0148 0.889559,-0.36387 0.903795,-0.84828 0.01223,-0.48055003 -0.365871,-0.88085003 -0.84635,-0.89615003 -0.24515,-0.007 -0.492259,-0.0148 -0.739121,-0.0148 z m 7.904374,1.67355003 c 1.886153,0 3.39307,1.50691 3.393059,3.39307 -8e-6,1.88612 -1.506917,3.40263 -3.393059,3.40263 -1.88615,0 -3.402626,-1.51651 -3.402633,-3.40263 -1.1e-5,-1.88616 1.516472,-3.39307 3.402633,-3.39307 z m -8.040329,7.15761 c -2.831394,0 -5.147047,2.3136903 -5.147033,5.1451003 0,0.20491 0.0126,0.40715 0.03631,0.60702 0.05569,0.48033 0.490584,0.8243 0.970816,0.76783 0.478711,-0.0567 0.821294,-0.49004 0.765928,-0.96889 -0.01556,-0.13117 -0.02112,-0.26938 -0.02112,-0.40596 -7e-6,-1.88616 1.508818,-3.39496 3.394975,-3.39496 1.88616,0 3.393073,1.5088 3.393062,3.39496 0,0.15266 -0.0096,0.30125 -0.0289,0.44809 -0.06488,0.47982 0.272495,0.92102 0.752526,0.9842 0.479831,0.0648 0.921048,-0.27235 0.984218,-0.75253 0.02964,-0.2227 0.04402,-0.45014 0.04402,-0.67976 1.1e-5,-2.83141 -2.313723,-5.1451003 -5.145121,-5.1451003 z M 12.278189,11.983312 c -0.09686,10e-4 -0.194793,0.007 -0.29295,0.0148 -0.216951,0.0148 -0.420385,0.11116 -0.570617,0.26827 l -0.687418,0.72378 c -0.300434,0.31385 -0.324927,0.80073 -0.05743,1.14315 1.017374,1.28496 1.258462,1.99065 1.474413,2.77842 -0.171116,0.17119 -0.34564,0.35869 -0.526579,0.56485 -0.817348,0.93154 -1.7068563,2.20594 -2.2594873,3.62478 -0.0085,0.0222 -0.03038,0.0663 -0.224028,0.16674 -0.193719,0.10042 -0.509619,0.21454 -0.867413,0.34868 -0.357793,0.1345 -0.770642,0.29124 -1.150809,0.6357 -0.380163,0.34423 -0.668206,0.93739 -0.645292,1.55675 -9.2e-5,0.007 -9.2e-5,0.0148 0,0.0222 0.0093,0.14636 0.0082,0.91968 -0.0056,1.57013 -0.01334,0.65044 -0.03075,1.2389 -0.03075,1.2389 -2.63e-4,0.0111 -2.63e-4,0.0259 0,0.0371 0.01853,1.14238 0.650198,2.00225 1.332715,2.35904 0.682524,0.35684 1.307777,0.43535 1.642916,0.58594 8.9e-5,2.6e-4 0.0074,-2.6e-4 0.0078,0 0.02408,0.0656 0.08786,0.28754 0.260416,0.65297 0.3504193,0.742 1.3053683,2.05131 3.1613673,3.99431 -0.01075,0.42486 -0.105678,1.00664 -0.164668,1.67929 -0.03335,0.38124 -0.05021,0.77702 0.04213,1.20058 0.09234,0.42357 0.33193,0.89371 0.746779,1.20826 l 0.0289,0.0222 c 0.608942,0.42171 1.258169,0.49619 1.757801,0.54955 0.499637,0.0534 0.868973,0.10746 1.005283,0.17415 0.4361,0.21418 0.963245,0.0334 1.173783,-0.40596 0.207799,-0.43368 0.02631,-0.95377 -0.405942,-1.1642 -0.59744,-0.29161 -1.149864,-0.29384 -1.591214,-0.3409 -0.427933,-0.0456 -0.723172,-0.11783 -0.919114,-0.24492 -0.03594,-0.0259 -0.06025,-0.0393 -0.08808,-0.16675 -0.03039,-0.13858 -0.03372,-0.38525 -0.0078,-0.68168 0.05199,-0.5929 0.236812,-1.34862 0.189569,-2.15606 -0.0126,-0.2138 -0.10327,-0.41538 -0.254673,-0.56678 -2.148729,-2.17944 -2.8204,-3.28851 -3.088604,-3.85647 -0.134098,-0.28383 -0.158554,-0.42697 -0.296803,-0.71614 -0.136395,-0.28532 -0.497024,-0.62992 -0.840607,-0.78125 l -0.01334,-0.007 c -0.6639933,-0.29495 -1.2519213,-0.38018 -1.5356853,-0.5285 -0.286575,-0.1497 -0.379511,-0.14266 -0.390623,-0.83294 9.89e-4,-0.0334 0.01556,-0.57463 0.0289,-1.21593 0.01371,-0.65196 0.03075,-1.30504 0.0078,-1.6927 -0.0067,-0.17601 -0.0093,-0.12784 0.0651,-0.19527 0.07452,-0.0674 0.293097,-0.18379 0.593594,-0.29681 0.300509,-0.11301 0.669329,-0.22566 1.056981,-0.42701 0.3876483,-0.2012 0.8340233,-0.54054 1.0493223,-1.09335 0.448913,-1.15253 1.238071,-2.30424 1.939711,-3.1039 0.04928,-0.0563 0.09723,-0.10635 0.145511,-0.15897 0.797184,-0.89918 1.280494,-0.80685 1.583555,-1.23034 0.249596,-0.41348 0.11672,-0.95106 -0.296802,-1.20062 -0.348938,-0.21158 -0.620203,-0.1786 -0.823374,-0.10894 -0.277053,-0.62051 -0.635784,-1.31783 -1.108678,-2.06991 0.907645,0.0222 1.798702,0.29384 2.699892,0.95547 0.386259,0.2831 0.928255,0.20269 1.215913,-0.18008 0.287799,-0.3881 0.206317,-0.93602 -0.181898,-1.2236 -1.125631,-0.82652 -2.430103,-1.44525 -3.883254,-1.42461 z m 17.137634,2.83393 c -0.353384,0.0148 -0.663241,0.24048 -0.785078,0.57252 -0.166187,0.45369 0.06703,0.95618 0.520831,1.12211 1.428659,0.52338 3.994768,2.84152 4.972786,5.90529 0.301435,0.94433 0.474574,1.95812 0.449984,3.02732 -0.02779,0.0982 -0.03824,0.20046 -0.03075,0.30236 0.0034,0.0148 0.0074,0.0296 0.01149,0.046 -0.146067,2.30983 -1.233417,4.86497 -3.984737,7.53096 -0.176636,0.16971 -0.273866,0.40604 -0.268086,0.65104 0.03594,1.46167 0.20528,2.56629 0.124465,2.9086 -0.04039,0.17119 -0.01816,0.13635 -0.166595,0.21046 -0.148327,0.0745 -0.548121,0.17601 -1.252292,0.17416 -0.0078,-1.1e-4 -0.01519,-1.1e-4 -0.02297,0 -0.544857,0.007 -0.88306,-0.0467 -1.049321,-0.10153 -0.166262,-0.0548 -0.148921,-0.07 -0.164668,-0.0937 -0.0189,-0.0296 -0.04825,-0.20972 -0.105308,-0.48826 0.07856,-0.0333 0.15722,-0.0641 0.235515,-0.0978 0.44393,-0.19157 0.648086,-0.70718 0.455728,-1.15079 -0.191607,-0.43968 -0.7016,-0.643 -1.143146,-0.45573 -3.025772,1.30312 -6.191452,1.29556 -9.633459,0.0652 -0.455246,-0.1597 -0.953934,0.0793 -1.114422,0.53424 -0.16037,0.45362 0.07578,0.95155 0.52849,1.1144 3.06469,1.09562 6.079527,1.31876 8.949864,0.56682 0.05473,0.26531 0.150996,0.56007 0.363834,0.88081 0.230587,0.3472 0.626305,0.63985 1.078046,0.78888 0.451736,0.14896 0.968736,0.19787 1.629509,0.18749 0.832267,10e-4 1.477344,-0.083 2.03354,-0.36201 0.560038,-0.28087 0.951999,-0.84083 1.078042,-1.37486 0.236293,-1.00116 -0.0078,-1.96408 -0.0651,-3.14029 2.513596,-2.5903 3.75774,-5.25255 4.101542,-7.72632 1.5183,-0.37591 2.605728,-1.48812 2.962228,-2.80328 0.406057,-1.49795 -0.148661,-3.25486 -1.694617,-4.34281 -0.395196,-0.28049 -0.94308,-0.18601 -1.221653,0.21047 -0.279239,0.39674 -0.182157,0.94495 0.216359,1.22167 1.013387,0.71314 1.233543,1.64098 1.012938,2.45479 -0.156442,0.57708 -0.543108,1.09714 -1.185273,1.39401 -0.03768,-0.93202 -0.19835,-1.82535 -0.465302,-2.66162 -1.154421,-3.61636 -3.816767,-6.20689 -6.03551,-7.01974 -0.107864,-0.0393 -0.222361,-0.0567 -0.337006,-0.0515 z m -7.123131,1.37678 c -1.728788,0.007 -3.468767,0.35757 -5.196818,1.09909 -0.443929,0.19157 -0.648086,0.70718 -0.455727,1.15079 0.191606,0.43968 0.701599,0.643 1.143146,0.45573 3.056197,-1.31116 5.996359,-1.25617 9.009228,-0.086 0.449969,0.17341 0.955364,-0.0504 1.129744,-0.49978 0.177192,-0.45162 -0.04706,-0.96111 -0.49977,-1.13549 -1.682979,-0.65348 -3.40101,-0.9903 -5.129803,-0.98419 z m -7.259078,3.21306 c -1.346976,0 -2.460535,1.10588 -2.460542,2.45287 7e-6,1.34698 1.113566,2.46053 2.460542,2.46053 1.346977,0 2.452876,-1.11355 2.452883,-2.46053 -7e-6,-1.34699 -1.105906,-2.45287 -2.452883,-2.45287 z m 0,1.74439 c 0.401744,0 0.70848,0.30681 0.708484,0.70848 -4e-6,0.40174 -0.30677,0.71043 -0.708484,0.7104 -0.401747,0 -0.710396,-0.30866 -0.710399,-0.7104 3e-6,-0.40174 0.30866,-0.70848 0.710399,-0.70848 z"
       sodipodi:nodetypes="sssssccssscccsssscccccssssscscccssscccsccccccccccscccccccsccsccsccsccccccccccscccccccsccccccccccccccccscccccscccscccccccccccccsccscccscsccccccccccccssssssssss" />
  </g>
</svg>
