<?xml version="1.0" encoding="UTF-8" standalone="no"?>
<!-- Created with Inkscape (http://www.inkscape.org/) -->

<svg
   width="244mm"
   height="368mm"
   viewBox="0 0 244 368"
   version="1.1"
   id="svg1"
   inkscape:version="1.3.1 (9b9bdc1480, 2023-11-25, custom)"
   sodipodi:docname="shapes.svg"
   xmlns:inkscape="http://www.inkscape.org/namespaces/inkscape"
   xmlns:sodipodi="http://sodipodi.sourceforge.net/DTD/sodipodi-0.dtd"
   xmlns="http://www.w3.org/2000/svg"
   xmlns:svg="http://www.w3.org/2000/svg">
  <sodipodi:namedview
     id="namedview1"
     pagecolor="#ffffff"
     bordercolor="#000000"
     borderopacity="0.25"
     inkscape:showpageshadow="2"
     inkscape:pageopacity="0.0"
     inkscape:pagecheckerboard="0"
     inkscape:deskcolor="#d1d1d1"
     inkscape:document-units="mm"
     inkscape:zoom="0.18774726"
     inkscape:cx="2210.4184"
     inkscape:cy="1435.4404"
     inkscape:window-width="1920"
     inkscape:window-height="1043"
     inkscape:window-x="0"
     inkscape:window-y="0"
     inkscape:window-maximized="1"
     inkscape:current-layer="layer1" />
  <defs
     id="defs1">
    <clipPath
       clipPathUnits="userSpaceOnUse"
       id="clipPath88-7-9">
      <path
         d="M 797.371,2742.45 H 909.626 V 2630.2 H 797.371 Z"
         transform="translate(-797.80802,-2699.2513)"
         id="path88-6-6" />
    </clipPath>
    <clipPath
       clipPathUnits="userSpaceOnUse"
       id="clipPath41-4">
      <path
         d="m 1584.15,1778.29 h 208.09 V 1572.2 h -208.09 z"
         transform="translate(-1747.6,-1573.3583)"
         id="path41-5" />
    </clipPath>
    <clipPath
       clipPathUnits="userSpaceOnUse"
       id="clipPath94-0">
      <path
         d="M 677.376,4067.28 H 1063.05 V 3681.61 H 677.376 Z"
         transform="translate(-1063.0537,-3874.4454)"
         id="path94-6" />
    </clipPath>
  </defs>
  <g
     inkscape:label="Layer 1"
     inkscape:groupmode="layer"
     id="layer1">
    <g
       id="g5"
       transform="matrix(0.26458333,0,0,0.26458333,-389.72182,57.50334)"
       style="fill:#ffffff;fill-opacity:0.198585;stroke:#ffffff;stroke-opacity:0.523236">
      <path
         d="m 0,0 c -2.087,-8.995 3.512,-17.979 12.508,-20.067 l 23.115,-5.364 -5.365,-23.116 c -2.087,-8.995 3.513,-17.979 12.508,-20.067 8.996,-2.088 17.981,3.512 20.068,12.507 l 5.365,23.116 23.115,-5.364 c 8.995,-2.088 17.98,3.511 20.067,12.506 2.088,8.995 -3.512,17.979 -12.508,20.067 l -23.115,5.364 5.365,23.116 C 83.21,31.693 77.611,40.677 68.615,42.765 59.619,44.853 50.635,39.253 48.547,30.258 L 43.182,7.142 20.068,12.507 C 11.072,14.594 2.087,8.995 0,0"
         style="mix-blend-mode:overlay;fill:#ffffff;fill-opacity:0.687241;fill-rule:nonzero;stroke:#ffffff;stroke-opacity:1"
         transform="matrix(1.3333333,0,0,-1.3333333,1909.5714,1073.8947)"
         clip-path="url(#clipPath88-7-9)"
         id="path89-6" />
      <path
         d="m 0,0 c 19.785,-4.08 38.82,8.141 43.335,27.823 1.28,5.586 1.228,11.4 -0.135,16.964 l 0.07,0.102 -27.765,88.544 -13.958,44.901 c -1.939,6.546 -5.666,12.409 -10.778,16.956 -4.808,4.277 -10.664,7.221 -16.936,8.515 -12.805,2.641 -26.154,-1.782 -34.836,-11.541 L -153.8,87.945 c -6.51,-7.319 -9.78,-16.735 -9.209,-26.514 0.571,-9.778 4.917,-18.749 12.236,-25.259 4.808,-4.276 10.663,-7.22 16.935,-8.514 L 0,0"
         style="mix-blend-mode:overlay;fill:#ffffff;fill-opacity:0.682815;stroke:#ffffff;stroke-width:0.75;stroke-linecap:butt;stroke-linejoin:miter;stroke-miterlimit:10;stroke-dasharray:none;stroke-opacity:0.266908"
         transform="matrix(1.3333333,0,0,-1.3333333,2330.1333,757.65564)"
         clip-path="url(#clipPath41-4)"
         id="path42" />
      <path
         d="m 0,0 c 0,106.502 -86.337,192.839 -192.839,192.839 -106.502,0 -192.838,-86.337 -192.838,-192.839 0,-106.502 86.336,-192.839 192.838,-192.839 C -86.337,-192.839 0,-106.502 0,0"
         style="mix-blend-mode:overlay;fill:#ffffff;fill-opacity:0.766144;fill-rule:nonzero;stroke:#ffffff;stroke-opacity:0.0581037"
         transform="matrix(1.3333333,0,0,-1.3333333,2002.4046,50.047228)"
         clip-path="url(#clipPath94-0)"
         id="path95-5" />
    </g>
  </g>
</svg>
